# xmcd CD database file
#
# Track frame offsets:
#	222
#	23295
#	41505
#	53080
#	71247
#	91745
#	112332
#	125042
#	145982
#	169540
#	183812
#	201242
#	222170
#
# Disc length: 3207 seconds
#
# Revision: 0
# Processed by: cddbd v1.4PL0 Copyright (c) Steve Scherf et al.
# Submitted via: CDex 1.50Beta7
#
DISCID=b70c850d
DTITLE=Grady Gaines And The Texas Upsetters - Horn Of Plenty
DYEAR=1992
DGENRE=Blues
TTITLE0=Baby, Work Out
TTITLE1=I'm Packin' Up
TTITLE2=Upsetter
TTITLE3=Stomp House Blues
TTITLE4=Have Fun, Baby
TTITLE5=Walking With Robert
TTITLE6=Alligator Rock
TTITLE7=G.G. Shuffle
TTITLE8=Looking For One Real Good Friend
TTITLE9=Baby Don't Do It
TTITLE10=My Baby Changed Me
TTITLE11=When Someting's Wrong With My Baby
TTITLE12=Jumbo
EXTD=YEAR: 1992
EXTT0=
EXTT1=
EXTT2=
EXTT3=
EXTT4=
EXTT5=
EXTT6=
EXTT7=
EXTT8=
EXTT9=
EXTT10=
EXTT11=
EXTT12=
PLAYORDER=
